<svg xmlns="http://www.w3.org/2000/svg" xmlns:xlink="http://www.w3.org/1999/xlink" width="128" height="128" viewBox="0 0 128 128">
  <defs>
    <clipPath id="clip-path">
      <rect id="Rectángulo_455533" data-name="Rectángulo 455533" width="128" height="122.776" fill="#19538d"/>
    </clipPath>
    <clipPath id="clip-path-2">
      <rect id="Rectángulo_464494" data-name="Rectángulo 464494" width="63.631" height="52.304" fill="#19538d"/>
    </clipPath>
  </defs>
  <g id="Grupo_1211739" data-name="Grupo 1211739" transform="translate(-383.746 -8399)">
    <circle id="Elipse_13674" data-name="Elipse 13674" cx="54.5" cy="54.5" r="54.5" transform="translate(392.746 8409)" fill="#fff"/>
    <g id="Grupo_1179062" data-name="Grupo 1179062" transform="translate(272)">
      <rect id="Rectángulo_455531" data-name="Rectángulo 455531" width="128" height="128" transform="translate(111.746 8399)" fill="none"/>
      <g id="Grupo_1179061" data-name="Grupo 1179061" transform="translate(111.746 8402)">
        <path id="Trazado_998445" data-name="Trazado 998445" d="M120.883,97.46H96.727L100,91.354h24.156Z" fill="#62249e"/>
        <path id="Trazado_998446" data-name="Trazado 998446" d="M1.985,86.893,0,90.934H26.632l1.986-4.041Z" fill="#19538d"/>
        <path id="Trazado_998447" data-name="Trazado 998447" d="M124.314,32.5H98.809l2-4.529h25.505Z" fill="#19538d"/>
        <path id="Trazado_998448" data-name="Trazado 998448" d="M36.988,12.75H3.483l2-4.529h33.5Z" fill="#19538d"/>
        <g id="Grupo_1179060" data-name="Grupo 1179060">
          <g id="Grupo_1179059" data-name="Grupo 1179059" clip-path="url(#clip-path)">
            <path id="Trazado_998449" data-name="Trazado 998449" d="M64,115.717a54.31,54.31,0,0,1-52.948-66.48H3.82A61.384,61.384,0,0,0,111.812,99.874h-9.469A54.154,54.154,0,0,1,64,115.717" fill="#19538d"/>
            <path id="Trazado_998450" data-name="Trazado 998450" d="M110.835,88.914h8.033c.645-1.284,1.231-2.6,1.787-3.934h-7.723c-.649,1.342-1.344,2.656-2.1,3.934" fill="#19538d"/>
            <path id="Trazado_998451" data-name="Trazado 998451" d="M125.388,61.388A61.4,61.4,0,0,0,5.373,43.131h7.452A54.33,54.33,0,1,1,114.406,81.649h7.526a61.118,61.118,0,0,0,3.456-20.261" fill="#19538d"/>
            <path id="Trazado_998452" data-name="Trazado 998452" d="M108.562,81.649V84.98h4.37q.792-1.637,1.475-3.331Z" fill="#19538d"/>
            <path id="Trazado_998453" data-name="Trazado 998453" d="M128,81.649h-6.068q-.592,1.689-1.277,3.331H128Z" fill="#19538d"/>
          </g>
        </g>
        <path id="Trazado_998444" data-name="Trazado 998444" d="M3,37.025,0,43.131H18.134l3-6.106Z" fill="#62249e"/>
      </g>
    </g>
    <g id="Grupo_1211848" data-name="Grupo 1211848" transform="translate(415.369 8437.348)">
      <g id="Grupo_1211847" data-name="Grupo 1211847" clip-path="url(#clip-path-2)">
        <path id="Trazado_1274677" data-name="Trazado 1274677" d="M55.555,52.3H25.74a.9.9,0,0,1-.9-.8,12.827,12.827,0,0,1,.084-3.245,3.529,3.529,0,0,1,3.4-2.545l4.44-.033,0-3.305L22.2,42.366a4.229,4.229,0,0,1-4.389-4l-.07-5.943L1,32.4a.99.99,0,0,1-1-1V1.077A1.056,1.056,0,0,1,1.165,0L20.092.021l5.359,5.35.041,5.044,33.692.017a4.423,4.423,0,0,1,4.446,4.5l-.03,23.22a4.307,4.307,0,0,1-4.381,4.217l-10.568.009v3.3l4.436.038a3.494,3.494,0,0,1,3.388,2.545,14.34,14.34,0,0,1,.075,3.237.889.889,0,0,1-1,.806m-37.6-31.771,5.482-.055L23.419,6.834,19.747,6.82a1.047,1.047,0,0,1-1.084-1.093l-.019-3.643H2.049l0,28.28L23.3,30.345c.186-.129.208-.681.091-.891l-5.266-.012a1.948,1.948,0,0,1-1.927-2.051l.011-4.933a1.86,1.86,0,0,1,1.755-1.927m2.629,11.943a.608.608,0,0,0-.771.09l.041,5.584a2.229,2.229,0,0,0,2.373,2.159H59.182a2.26,2.26,0,0,0,2.373-2.192l.028-23.172a2.387,2.387,0,0,0-2.409-2.463l-33.636-.017a1.221,1.221,0,0,0,0,.815H59.177a1.478,1.478,0,0,1,1.629,1.461l.015,20.79a1.157,1.157,0,0,1-1.26,1.219H21.852a1.143,1.143,0,0,1-1.254-1.2Zm6.524-3.027-1.623.013-.016,2.008a.948.948,0,0,1-.884.914l-1.929.09.062,2.221,36.033,0,.012-19.372-33.274,0-.014,5.1a3.253,3.253,0,0,0,1.626.01l.016-1.845a1.433,1.433,0,0,1,.767-1.377,1.5,1.5,0,0,1,1.568.075l7.73,6.544a1.539,1.539,0,0,1,.529,1.366,1.643,1.643,0,0,1-.689,1.071l-7.29,6.182a1.588,1.588,0,0,1-1.779.334,1.642,1.642,0,0,1-.848-1.509Zm.918-2.06A1.131,1.131,0,0,1,29.184,28.4l.073,1.744,6.09-5.124-6.116-5.252-.068,1.893a1.008,1.008,0,0,1-1.025.9l-9.882.011.027,4.818ZM46.576,45.667l-.033-3.31-11.7.018.025,3.327Zm7.887,4.6a4.018,4.018,0,0,0-.024-1.77,1.932,1.932,0,0,0-1.59-.75H28.562a1.7,1.7,0,0,0-1.546.766,3.113,3.113,0,0,0-.07,1.753Z" transform="translate(0 0)" fill="#19538d"/>
        <path id="Trazado_1274678" data-name="Trazado 1274678" d="M38.191,48l-13.673-.01a.992.992,0,0,1-1.084-.918,1.012,1.012,0,0,1,1.083-1.12l13.87,0a1.03,1.03,0,0,1,.954,1.088,1.055,1.055,0,0,1-1.15.958" transform="translate(-18.642 -36.558)" fill="#19538d"/>
        <path id="Trazado_1274679" data-name="Trazado 1274679" d="M38.191,67.977,24.52,67.964a.99.99,0,0,1-1.086-.916,1.014,1.014,0,0,1,1.08-1.125l13.873.006a1.028,1.028,0,0,1,.953,1.09,1.057,1.057,0,0,1-1.149.958" transform="translate(-18.642 -52.449)" fill="#19538d"/>
        <path id="Trazado_1274680" data-name="Trazado 1274680" d="M38.212,87.973l-13.677-.009a1.025,1.025,0,0,1-1.071-.928,1,1,0,0,1,1.071-1.116l13.874.007a1.026,1.026,0,0,1,.953,1.09,1.055,1.055,0,0,1-1.149.956" transform="translate(-18.663 -68.36)" fill="#19538d"/>
        <path id="Trazado_1274681" data-name="Trazado 1274681" d="M34.592,27.971,24.516,28a1.024,1.024,0,1,1,0-2.045h9.991a.95.95,0,0,1,.9.927c.034.38-.153,1.089-.812,1.091" transform="translate(-18.643 -20.649)" fill="#19538d"/>
        <path id="Trazado_1274682" data-name="Trazado 1274682" d="M32.173,107.9H24.526a1.029,1.029,0,0,1-1.066-.927.994.994,0,0,1,1.065-1.115l7.763-.017a.979.979,0,0,1,1.059.945c.049.644-.328,1.116-1.174,1.116" transform="translate(-18.659 -84.21)" fill="#19538d"/>
        <path id="Trazado_1274683" data-name="Trazado 1274683" d="M32.171,127.9H24.524a1.032,1.032,0,0,1-1.066-.927,1,1,0,0,1,1.064-1.119l7.765-.015a.979.979,0,0,1,1.058.946c.048.642-.328,1.115-1.174,1.115" transform="translate(-18.658 -100.117)" fill="#19538d"/>
      </g>
    </g>
  </g>
</svg>
