<svg xmlns="http://www.w3.org/2000/svg" xmlns:xlink="http://www.w3.org/1999/xlink" width="96" height="96" viewBox="0 0 96 96">
  <defs>
    <clipPath id="clip-path">
      <rect id="Rectángulo_455533" data-name="Rectángulo 455533" width="95.999" height="92.163" fill="#19538d"/>
    </clipPath>
    <clipPath id="clip-path-2">
      <rect id="Rectángulo_464502" data-name="Rectángulo 464502" width="47.42" height="58.818" fill="#fff"/>
    </clipPath>
  </defs>
  <g id="Grupo_1211752" data-name="Grupo 1211752" transform="translate(-383.746 -8399)">
    <circle id="Elipse_13674" data-name="Elipse 13674" cx="41.5" cy="41.5" r="41.5" transform="translate(389.746 8406)" fill="#19538d"/>
    <g id="Grupo_1179062" data-name="Grupo 1179062" transform="translate(383.745 8399)">
      <rect id="Rectángulo_455531" data-name="Rectángulo 455531" width="96" height="96" transform="translate(0 0)" fill="none"/>
      <g id="Grupo_1179061" data-name="Grupo 1179061" transform="translate(0 2.203)">
        <path id="Trazado_998445" data-name="Trazado 998445" d="M114.467,95.838H96.727l2.4-4.484h17.739Z" transform="translate(-23.693 -22.7)" fill="#19538d"/>
        <path id="Trazado_998446" data-name="Trazado 998446" d="M1.458,86.893,0,89.861H19.558l1.458-2.968Z" transform="translate(0 -21.618)" fill="#19538d"/>
        <path id="Trazado_998447" data-name="Trazado 998447" d="M117.539,31.293H98.809l1.469-3.326h18.73Z" transform="translate(-24.246 -6.956)" fill="#19538d"/>
        <path id="Trazado_998448" data-name="Trazado 998448" d="M28.088,11.547H3.483L4.952,8.221H29.557Z" transform="translate(-0.925 -2.184)" fill="#19538d"/>
        <g id="Grupo_1179060" data-name="Grupo 1179060" transform="translate(0)">
          <g id="Grupo_1179059" data-name="Grupo 1179059" clip-path="url(#clip-path)">
            <path id="Trazado_998449" data-name="Trazado 998449" d="M48.653,99.141a40.772,40.772,0,0,1-39.711-49.9H3.518A46.036,46.036,0,0,0,84.512,87.248h-7.1A40.6,40.6,0,0,1,48.653,99.141" transform="translate(-0.653 -12.277)" fill="#19538d"/>
            <path id="Trazado_998450" data-name="Trazado 998450" d="M110.835,87.933h6.025c.484-.964.923-1.952,1.34-2.953h-5.792c-.487,1.007-1.008,1.994-1.573,2.953" transform="translate(-27.709 -21.189)" fill="#19538d"/>
            <path id="Trazado_998451" data-name="Trazado 998451" d="M95.384,46.081a46.043,46.043,0,0,0-90.011-13.7h5.589A40.752,40.752,0,1,1,87.147,61.291h5.644a45.915,45.915,0,0,0,2.592-15.209" transform="translate(-1.343)" fill="#19538d"/>
            <path id="Trazado_998452" data-name="Trazado 998452" d="M108.562,81.649v2.5h3.277q.594-1.228,1.106-2.5Z" transform="translate(-27.141 -20.358)" fill="#19538d"/>
            <path id="Trazado_998453" data-name="Trazado 998453" d="M126.164,81.649h-4.551q-.444,1.268-.958,2.5h5.509Z" transform="translate(-30.164 -20.358)" fill="#19538d"/>
          </g>
        </g>
        <path id="Trazado_998444" data-name="Trazado 998444" d="M2.2,37.025,0,41.509H13.317l2.2-4.484Z" transform="translate(0 -9.2)" fill="#19538d"/>
      </g>
    </g>
    <g id="Grupo_1211864" data-name="Grupo 1211864" transform="translate(410.036 8418.591)">
      <g id="Grupo_1211863" data-name="Grupo 1211863" clip-path="url(#clip-path-2)">
        <path id="Trazado_1274777" data-name="Trazado 1274777" d="M29.575,51.43c-4.361.778-6.411,2.716-8.064,6.647a1.139,1.139,0,0,1-1.184.735,1.089,1.089,0,0,1-1-.941,34.535,34.535,0,0,1,.568-7.325L1.127,50.533A1.116,1.116,0,0,1,0,49.4V5.924A1.1,1.1,0,0,1,1.1,4.813L4.81,4.784l.034-3.654A1.118,1.118,0,0,1,6.085,0L33.72.018l7.674,7.7L41.4,38.906l5.469,4.837a1.287,1.287,0,0,1,.549,1.019,1.373,1.373,0,0,1-.579,1l-9.033,8.025a1.289,1.289,0,0,1-1.261.374,1.171,1.171,0,0,1-.816-1.06l-.011-2.118a40.128,40.128,0,0,0-6.146.452M39.13,36.769V9.371l-5.868-.006a1.182,1.182,0,0,1-1.2-1.161L32.045,2.34l-24.925,0v41.07L23.251,43.4a12.109,12.109,0,0,1,5.267-3.123,24.6,24.6,0,0,1,7.167-.967l.033-2.718a1.209,1.209,0,0,1,.685-1.216c1.2-.426,1.588.793,2.727,1.393M37.352,6.962,34.4,3.982,34.37,7.028a12.869,12.869,0,0,0,2.982-.066M6,45.744A1.168,1.168,0,0,1,4.838,44.61l0-37.438-2.51,0L2.319,48.242l18.2-.012a25.873,25.873,0,0,1,1.029-2.475Zm15.885,7.2c3.74-4.264,9.842-4.273,15.4-4.259.671.344.777.954.776,1.757l6.472-5.7-6.41-5.667a2.337,2.337,0,0,0-.106,1.171,1.153,1.153,0,0,1-1.253,1.308,28.485,28.485,0,0,0-7.264.8c-5.09,1.35-7.112,5.539-7.611,10.59" transform="translate(0 0)" fill="#fff"/>
        <path id="Trazado_1274778" data-name="Trazado 1274778" d="M91.37,68.262H75.186a1.2,1.2,0,0,1-1-1.284,1.142,1.142,0,0,1,1.256-1.035H91.046a1.166,1.166,0,0,1,1.24.888,1.225,1.225,0,0,1-.917,1.431" transform="translate(-60.543 -53.821)" fill="#fff"/>
        <path id="Trazado_1274779" data-name="Trazado 1274779" d="M91.047,147.763l-15.6,0a1.118,1.118,0,0,1-1.258-1.03,1.146,1.146,0,0,1,1.142-1.265H91.162a1.162,1.162,0,0,1,1.154,1.114,1.15,1.15,0,0,1-1.268,1.185" transform="translate(-60.544 -118.723)" fill="#fff"/>
        <path id="Trazado_1274780" data-name="Trazado 1274780" d="M91.259,187.424l-15.973.022a1.216,1.216,0,0,1-1.109-1.169,1.193,1.193,0,0,1,1.275-1.161l15.742.014a1.2,1.2,0,0,1,1.12,1.005,1.173,1.173,0,0,1-1.055,1.289" transform="translate(-60.541 -151.087)" fill="#fff"/>
        <path id="Trazado_1274781" data-name="Trazado 1274781" d="M91.051,108.022l-15.613,0a1.131,1.131,0,0,1-1.256-1.077,1.1,1.1,0,0,1,1.068-1.216l15.8-.009a1.157,1.157,0,1,1,0,2.3" transform="translate(-60.543 -86.284)" fill="#fff"/>
      </g>
    </g>
  </g>
</svg>
