<svg xmlns="http://www.w3.org/2000/svg" xmlns:xlink="http://www.w3.org/1999/xlink" width="128" height="128" viewBox="0 0 128 128">
  <defs>
    <clipPath id="clip-path">
      <rect id="Rectángulo_455533" data-name="Rectángulo 455533" width="128" height="122.776" fill="#19538d"/>
    </clipPath>
    <clipPath id="clip-path-2">
      <rect id="Rectángulo_464467" data-name="Rectángulo 464467" width="58.937" height="58.907" fill="#19538d"/>
    </clipPath>
  </defs>
  <g id="Grupo_1211679" data-name="Grupo 1211679" transform="translate(-383.746 -8399)">
    <circle id="Elipse_13674" data-name="Elipse 13674" cx="54.5" cy="54.5" r="54.5" transform="translate(392.746 8409)" fill="#fff"/>
    <g id="Grupo_1179062" data-name="Grupo 1179062" transform="translate(272)">
      <rect id="Rectángulo_455531" data-name="Rectángulo 455531" width="128" height="128" transform="translate(111.746 8399)" fill="none"/>
      <g id="Grupo_1179061" data-name="Grupo 1179061" transform="translate(111.746 8402)">
        <path id="Trazado_998445" data-name="Trazado 998445" d="M120.883,97.46H96.727L100,91.354h24.156Z" fill="#62249e"/>
        <path id="Trazado_998446" data-name="Trazado 998446" d="M1.985,86.893,0,90.934H26.632l1.986-4.041Z" fill="#19538d"/>
        <path id="Trazado_998447" data-name="Trazado 998447" d="M124.314,32.5H98.809l2-4.529h25.505Z" fill="#19538d"/>
        <path id="Trazado_998448" data-name="Trazado 998448" d="M36.988,12.75H3.483l2-4.529h33.5Z" fill="#19538d"/>
        <g id="Grupo_1179060" data-name="Grupo 1179060">
          <g id="Grupo_1179059" data-name="Grupo 1179059" clip-path="url(#clip-path)">
            <path id="Trazado_998449" data-name="Trazado 998449" d="M64,115.717a54.31,54.31,0,0,1-52.948-66.48H3.82A61.384,61.384,0,0,0,111.812,99.874h-9.469A54.154,54.154,0,0,1,64,115.717" fill="#19538d"/>
            <path id="Trazado_998450" data-name="Trazado 998450" d="M110.835,88.914h8.033c.645-1.284,1.231-2.6,1.787-3.934h-7.723c-.649,1.342-1.344,2.656-2.1,3.934" fill="#19538d"/>
            <path id="Trazado_998451" data-name="Trazado 998451" d="M125.388,61.388A61.4,61.4,0,0,0,5.373,43.131h7.452A54.33,54.33,0,1,1,114.406,81.649h7.526a61.118,61.118,0,0,0,3.456-20.261" fill="#19538d"/>
            <path id="Trazado_998452" data-name="Trazado 998452" d="M108.562,81.649V84.98h4.37q.792-1.637,1.475-3.331Z" fill="#19538d"/>
            <path id="Trazado_998453" data-name="Trazado 998453" d="M128,81.649h-6.068q-.592,1.689-1.277,3.331H128Z" fill="#19538d"/>
          </g>
        </g>
        <path id="Trazado_998444" data-name="Trazado 998444" d="M3,37.025,0,43.131H18.134l3-6.106Z" fill="#62249e"/>
      </g>
    </g>
    <g id="Grupo_1211794" data-name="Grupo 1211794" transform="translate(420.277 8431.33)">
      <g id="Grupo_1211793" data-name="Grupo 1211793" clip-path="url(#clip-path-2)">
        <path id="Trazado_1274392" data-name="Trazado 1274392" d="M9.959,91.511c-.9-.915.777-2.472.65-2.874a7.311,7.311,0,0,0-.86-1.944c-.216-.313-2.441-.141-2.442-1.636V81.342c0-1.493,2.224-1.321,2.442-1.636a7.291,7.291,0,0,0,.861-1.945c.129-.4-1.553-1.954-.649-2.871l2.687-2.729a1.545,1.545,0,0,1,2.018.08c.684.685,1.156.458,1.912.16.788-.31,1.294-.563,1.312-1.525a1.576,1.576,0,0,1,1.675-1.488l3,0a1.711,1.711,0,0,1,1.662,1.07A17.507,17.507,0,0,1,50.785,92.637a1.625,1.625,0,0,0,.325,2.044A3.266,3.266,0,0,1,54,95.387l9.643,9.684a4.495,4.495,0,0,1-6.355,6.354l-9.766-9.737a3.314,3.314,0,0,1-.64-2.784c-.285-.619-1.432-.685-2.033-.325a17.492,17.492,0,0,1-20.92-2.134,1.722,1.722,0,0,1-1.36.559H19.57c-2.127,0-1.49-2.258-2.088-2.568a9.032,9.032,0,0,0-1.978-.785c-1.043.653-2.058,1.394-2.86.581Zm14.656,3A15.674,15.674,0,0,0,44.064,96.9a3.728,3.728,0,0,1,4.1.477l1.414-1.483a3.638,3.638,0,0,1-.473-4.038A15.656,15.656,0,0,0,25.135,72.145a3.867,3.867,0,0,0,1.638.612c.576-.665,1.375-.669,2-1.025a13.753,13.753,0,1,1-2.312,21.927,9.515,9.515,0,0,0-1.847.85m-2.073.552c.081-.707.056-1.67.577-1.95a15.891,15.891,0,0,1,3.572-1.454c.636-.161,1.26.664,1.812.914l1.953-1.909-1.022-1.714,1.55-3.821A6.255,6.255,0,0,1,32.96,84.6l.057-2.736L31,81.291l-1.565-3.838,1.022-1.713-1.914-1.924-1.735,1.027a22.079,22.079,0,0,1-3.782-1.619c-.447-.416-.4-1.312-.516-1.923l-2.823.019-.42,1.9a31.748,31.748,0,0,1-3.949,1.628L13.6,73.813l-1.894,1.9c.4.876,1.209,1.444.887,2.2L11.107,81.4l-1.954.484v2.641l2.027.542L12.63,88.81c.225.579-.582,1.2-.935,1.749a11.852,11.852,0,0,0,1.943,2.027c.565-.276,1.169-1.062,1.824-.929a22.269,22.269,0,0,1,3.807,1.51l.476,1.954ZM34.865,84.969c-.007,1.637-2.253,1.387-2.477,1.727a8.236,8.236,0,0,0-.844,1.953c-.143.428,1.663,1.849.564,2.978l-2.2,2.255a11.863,11.863,0,1,0,.54-20.9l1.658,1.786c1.091,1.174-.712,2.545-.565,2.985a8.115,8.115,0,0,0,.844,1.949c.247.371,2.5.065,2.492,1.824Zm23.8,25.16a2.536,2.536,0,0,0,3.685-.259,2.592,2.592,0,0,0-.134-3.564l-9.579-9.582A.782.782,0,0,0,51.5,96.7l-2.6,2.595a.788.788,0,0,0,.026,1.144Z" transform="translate(-5.945 -53.768)" fill="#19538d"/>
        <path id="Trazado_1274393" data-name="Trazado 1274393" d="M9.983,14.853c-.165.981-1.566,1.077-2.986.935-1.33-.133-1.1-1.391-1.608-1.645-.661-.331-1.552.82-2.337.01L1.5,12.552c-.58-.6.4-1.485.161-2.1C1.447,9.907.228,10.024.088,9.131A9.672,9.672,0,0,1,.066,6.765C.16,5.69,1.383,5.891,1.625,5.43,2,4.71.724,3.9,1.757,2.868L2.871,1.754C3.9.723,4.708,2,5.433,1.622,5.892,1.386,5.7.038,6.931.043L8.978.051c.954,0,.992,1.313,1.345,1.538.674.431,1.6-.706,2.233-.094l1.6,1.554c.774.751-.238,1.654-.066,2.2.222.705,1.689.452,1.681,1.741l-.012,1.874c-.01,1.493-2.387.865-1.488,2.429.524.911-.158,1.581-.774,2.2-1.844,1.85-2.271.321-3.008.613a.822.822,0,0,0-.506.746M11,11.943a2.051,2.051,0,0,0,.93.366.475.475,0,0,0,.392-.588c-.048-.129-.335-.387-.305-.6A5.393,5.393,0,0,1,13.139,8.5c.125-.144.548-.144.669-.251s.172-.635,0-.692a1.762,1.762,0,0,1-1.324-1.373c-.141-.494-.6-1.03-.433-1.6a4.069,4.069,0,0,0,.261-.687c0-.166-.324-.49-.5-.45a1.552,1.552,0,0,1-1.822.023c-.473-.272-1.23-.32-1.494-.909-.118-.265-.179-.575-.38-.658-.185-.076-.607-.009-.632.15-.124.791-.55,1-1.251,1.235-.545.18-1.215.712-1.818.378-.348-.193-.6-.322-.865-.007-.2.235-.049.476.1.759.339.627-.218,1.261-.367,1.823a1.569,1.569,0,0,1-1.33,1.3c-.14.076-.119.6.007.7a5.385,5.385,0,0,0,.6.264c.574.282.627,1.011.9,1.5a1.579,1.579,0,0,1-.023,1.822c-.047.168.281.5.446.5a3.987,3.987,0,0,0,.69-.261c.569-.165,1.108.3,1.6.436A1.757,1.757,0,0,1,7.558,13.8c.059.178.578.141.69.006.213-.256-.2-.989,2.748-1.865" transform="translate(-0.003 -0.035)" fill="#19538d"/>
        <path id="Trazado_1274394" data-name="Trazado 1274394" d="M9.057,247.238l-2.127.026c-1.22.015-1.046-1.344-1.5-1.583-.722-.381-1.525.912-2.562-.128l-1.114-1.117c-1.033-1.036.246-1.842-.132-2.562-.243-.462-1.464-.261-1.561-1.335a9.717,9.717,0,0,1,.023-2.366c.129-.846,1.272-.823,1.5-1.189.43-.677-.708-1.611-.094-2.232l1.66-1.68c.616-.623,1.573.3,2.1.144.683-.2.436-1.676,1.742-1.674l1.875,0c1.236,0,.966,1.378,1.618,1.653.693.292,1.265-1.214,2.916.522.587.617,1.333,1.2.932,2.165-.089.215-.28.458-.273.654.041,1.062,1.688.514,1.7,1.9l.01,1.835c.007,1.3-1.382,1.139-1.63,1.639-.325.657.82,1.543.017,2.339l-1.5,1.486c-.709.7-1.564-.343-2.207-.093-.519.2-.506,1.58-1.39,1.591m1.067-3.457a1.452,1.452,0,0,1,1.69.085c.173.039.488-.288.494-.453s-.2-.468-.26-.687c-.166-.573.29-1.11.432-1.6a1.755,1.755,0,0,1,1.322-1.37c.176-.058.132-.583.007-.693s-.559-.1-.672-.24a5.446,5.446,0,0,1-1.123-2.65l.311-.729c.048-.113-.124-.437-.4-.449a2.207,2.207,0,0,0-.932.365c-2.886-.847-2.5-1.535-2.747-1.857-.114-.148-.636-.17-.692,0a1.763,1.763,0,0,1-1.372,1.324c-.493.14-1.034.589-1.6.432-.226-.062-.51-.262-.691-.261s-.5.332-.445.493a1.578,1.578,0,0,1,.017,1.829c-.271.469-.319,1.231-.907,1.49-.27.119-.575.182-.66.383-.369.87.861.251,1.385,1.884.175.547.7,1.212.372,1.812-.193.348-.309.612,0,.868.238.2.477.049.762-.113.618-.351,1.265.23,1.815.376a1.6,1.6,0,0,1,1.318,1.335c.092.171.7.089.764-.118.37-1.224,1.031-1,1.813-1.451" transform="translate(0 -188.404)" fill="#19538d"/>
        <path id="Trazado_1274395" data-name="Trazado 1274395" d="M155.033,7.908A.926.926,0,0,1,153.187,8L153.176.935A.882.882,0,0,1,154.024,0a.9.9,0,0,1,1.008.932Z" transform="translate(-124.638 0)" fill="#19538d"/>
        <path id="Trazado_1274396" data-name="Trazado 1274396" d="M155.037,276.558a.941.941,0,0,1-.854,1.033.9.9,0,0,1-1.008-.942l0-6.875a.929.929,0,1,1,1.856,0Z" transform="translate(-124.636 -218.72)" fill="#19538d"/>
        <path id="Trazado_1274397" data-name="Trazado 1274397" d="M277,154.881h-6.875a.948.948,0,0,1-.933-.852.919.919,0,0,1,.927-1l6.883,0a.889.889,0,0,1,.932.843.911.911,0,0,1-.934,1.012" transform="translate(-219.04 -124.516)" fill="#19538d"/>
        <path id="Trazado_1274398" data-name="Trazado 1274398" d="M148.911,130.075c-.835-.383-.943-3.7,1.234-4.8a2.64,2.64,0,0,0,1.5-2.309A2.568,2.568,0,0,0,150.1,120.6c-2.585-1.014-3.177,1.979-4.408.916a1.014,1.014,0,0,1,0-1.452,4.527,4.527,0,0,1,5.042-1.227,4.458,4.458,0,0,1,2.775,3.936,4.689,4.689,0,0,1-2.708,4.291c-.916.475-.183,2.263-.878,2.908a.989.989,0,0,1-1.015.1" transform="translate(-118.303 -96.444)" fill="#19538d"/>
        <path id="Trazado_1274399" data-name="Trazado 1274399" d="M162.764,188.011a.916.916,0,0,1-.673-1.039.971.971,0,0,1,.626-.987.947.947,0,0,1,1.252.818c.1.72-.288,1.4-1.2,1.208" transform="translate(-131.892 -151.292)" fill="#19538d"/>
        <path id="Trazado_1274400" data-name="Trazado 1274400" d="M46.642,117.777a7.525,7.525,0,1,1-5.632,9.111,7.5,7.5,0,0,1,5.632-9.111M47,119.605a5.659,5.659,0,1,0,6.83,4.158A5.653,5.653,0,0,0,47,119.605" transform="translate(-33.194 -95.672)" fill="#19538d"/>
        <path id="Trazado_1274401" data-name="Trazado 1274401" d="M21.958,18.164a4.485,4.485,0,1,1-3.611,5.316,4.448,4.448,0,0,1,3.611-5.316m.186,1.859a2.626,2.626,0,1,0,3.144,1.911,2.624,2.624,0,0,0-3.144-1.911" transform="translate(-14.854 -14.719)" fill="#19538d"/>
        <path id="Trazado_1274402" data-name="Trazado 1274402" d="M21.583,249.913a4.483,4.483,0,1,1,2.231,8.682,4.494,4.494,0,0,1-5.378-3.11,4.439,4.439,0,0,1,3.147-5.572m.206,1.891a2.616,2.616,0,1,0,3.422,1.509A2.587,2.587,0,0,0,21.79,251.8" transform="translate(-14.857 -203.227)" fill="#19538d"/>
      </g>
    </g>
  </g>
</svg>
