<svg xmlns="http://www.w3.org/2000/svg" xmlns:xlink="http://www.w3.org/1999/xlink" width="128" height="128" viewBox="0 0 128 128">
  <defs>
    <clipPath id="clip-path">
      <rect id="Rectángulo_455533" data-name="Rectángulo 455533" width="128" height="122.776" fill="#19538d"/>
    </clipPath>
    <clipPath id="clip-path-2">
      <rect id="Rectángulo_464465" data-name="Rectángulo 464465" width="58.85" height="58.779" fill="#19538d"/>
    </clipPath>
  </defs>
  <g id="Grupo_1211669" data-name="Grupo 1211669" transform="translate(-383.746 -8399)">
    <circle id="Elipse_13674" data-name="Elipse 13674" cx="54.5" cy="54.5" r="54.5" transform="translate(392.746 8409)" fill="#fff"/>
    <g id="Grupo_1179062" data-name="Grupo 1179062" transform="translate(272)">
      <rect id="Rectángulo_455531" data-name="Rectángulo 455531" width="128" height="128" transform="translate(111.746 8399)" fill="none"/>
      <g id="Grupo_1179061" data-name="Grupo 1179061" transform="translate(111.746 8402)">
        <path id="Trazado_998445" data-name="Trazado 998445" d="M120.883,97.46H96.727L100,91.354h24.156Z" fill="#62249e"/>
        <path id="Trazado_998446" data-name="Trazado 998446" d="M1.985,86.893,0,90.934H26.632l1.986-4.041Z" fill="#19538d"/>
        <path id="Trazado_998447" data-name="Trazado 998447" d="M124.314,32.5H98.809l2-4.529h25.505Z" fill="#19538d"/>
        <path id="Trazado_998448" data-name="Trazado 998448" d="M36.988,12.75H3.483l2-4.529h33.5Z" fill="#19538d"/>
        <g id="Grupo_1179060" data-name="Grupo 1179060">
          <g id="Grupo_1179059" data-name="Grupo 1179059" clip-path="url(#clip-path)">
            <path id="Trazado_998449" data-name="Trazado 998449" d="M64,115.717a54.31,54.31,0,0,1-52.948-66.48H3.82A61.384,61.384,0,0,0,111.812,99.874h-9.469A54.154,54.154,0,0,1,64,115.717" fill="#19538d"/>
            <path id="Trazado_998450" data-name="Trazado 998450" d="M110.835,88.914h8.033c.645-1.284,1.231-2.6,1.787-3.934h-7.723c-.649,1.342-1.344,2.656-2.1,3.934" fill="#19538d"/>
            <path id="Trazado_998451" data-name="Trazado 998451" d="M125.388,61.388A61.4,61.4,0,0,0,5.373,43.131h7.452A54.33,54.33,0,1,1,114.406,81.649h7.526a61.118,61.118,0,0,0,3.456-20.261" fill="#19538d"/>
            <path id="Trazado_998452" data-name="Trazado 998452" d="M108.562,81.649V84.98h4.37q.792-1.637,1.475-3.331Z" fill="#19538d"/>
            <path id="Trazado_998453" data-name="Trazado 998453" d="M128,81.649h-6.068q-.592,1.689-1.277,3.331H128Z" fill="#19538d"/>
          </g>
        </g>
        <path id="Trazado_998444" data-name="Trazado 998444" d="M3,37.025,0,43.131H18.134l3-6.106Z" fill="#62249e"/>
      </g>
    </g>
    <g id="Grupo_1211790" data-name="Grupo 1211790" transform="translate(418.322 8434.111)">
      <g id="Grupo_1211789" data-name="Grupo 1211789" clip-path="url(#clip-path-2)">
        <path id="Trazado_1274379" data-name="Trazado 1274379" d="M35.264,30.378l-.009,20.558,8.192-.02a.982.982,0,0,0,.976-.809,4.716,4.716,0,0,1,5.108-2.141A5.913,5.913,0,0,1,58.4,54.9a5.855,5.855,0,0,1-5.52,3.878l-7.634.005A4.119,4.119,0,0,1,41.529,52.9l-7.243-.008a.978.978,0,0,1-.984-1l0-21.507H30.362l-.006,25.433a2.888,2.888,0,0,1-2.95,2.957l-24.453,0A2.886,2.886,0,0,1,0,55.8V2.975A2.856,2.856,0,0,1,2.948.019L27.214,0a2.925,2.925,0,0,1,3.142,2.962L30.362,28.4l2.939,0,0-21.518c0-.707.551-1,1.167-1l8.876,0a7.836,7.836,0,1,1,3.741,8.782l-2.7.951a.95.95,0,0,1-.95-.188.97.97,0,0,1-.287-1.052L44.1,11.7a8.042,8.042,0,0,1-1-3.852l-7.841,0V28.42l8.084-.007a7.925,7.925,0,1,1-.243,1.964ZM27.328,1.966l-4.6,0-.039,2.741a1.945,1.945,0,0,1-1.936,1.723H9.606A1.946,1.946,0,0,1,7.67,4.712L7.631,1.97l-4.691,0A.963.963,0,0,0,1.956,2.99l0,52.8a1,1,0,0,0,1.007,1.039H27.393A1,1,0,0,0,28.4,55.785l0-52.8a.99.99,0,0,0-1.075-1.024M20.735,4.458l-.042-2.419H9.663L9.619,4.459ZM45.9,12.953c.548-.077,1.175-.564,1.573-.3a5.982,5.982,0,0,0,8.035-1.121,5.879,5.879,0,0,0-8.378-8.175A6,6,0,0,0,46.121,11.3c.292.451-.426,1.113-.22,1.651m9.643,21.015a5.84,5.84,0,0,0-.708-8,5.906,5.906,0,0,0-7.918.1,5.821,5.821,0,0,0-.585,7.906A4.824,4.824,0,0,1,51.026,30.7a4.884,4.884,0,0,1,4.518,3.264m-1.737,1.539a2.864,2.864,0,1,0-5.728.013,6.036,6.036,0,0,0,5.728-.013M43.115,54.923a2.12,2.12,0,0,0,2.138,1.889l7.632,0a3.939,3.939,0,1,0-2.5-7.006,1.029,1.029,0,0,1-1.064.191,2.593,2.593,0,0,0-3.442,1.748c-.284,1.141-3.047.609-2.764,3.182" transform="translate(0 0)" fill="#19538d"/>
        <path id="Trazado_1274380" data-name="Trazado 1274380" d="M36.976,117.827a6.551,6.551,0,0,1-3.323.031c-1.14-.291-1.473-1.409-1.383-2.618a3.378,3.378,0,0,1-1.537,1.049,2.017,2.017,0,0,1-1.853-.548l-1.754-1.77c-1-1.01-.46-2.462.66-3.289a3.193,3.193,0,0,1-1.974-.362A1.975,1.975,0,0,1,25,108.655l.014-2.142c.009-1.411,1.284-1.953,2.7-1.874-1.15-.986-1.5-2.32-.581-3.256l1.648-1.672a2.109,2.109,0,0,1,1.783-.679,3.123,3.123,0,0,1,1.715,1.09c-.087-1.2.24-2.352,1.373-2.6a8.942,8.942,0,0,1,3.114-.042c1.206.176,1.645,1.369,1.522,2.639a3.569,3.569,0,0,1,1.54-1.056,2.116,2.116,0,0,1,1.962.644l1.562,1.568c.983.987.677,2.385-.55,3.42a2.849,2.849,0,0,1,2.067.427,2.175,2.175,0,0,1,.705,1.772l-.02,1.952c-.014,1.409-1.286,1.958-2.7,1.877,1.138.973,1.511,2.322.571,3.249l-1.97,1.942c-.933.92-2.321.381-3.136-.7-.005,1.16-.174,2.269-1.342,2.613m-.647-1.922.017-3.091a5.6,5.6,0,0,0,1.621-.672l2.3,2.233,1.69-1.755L39.8,110.434l.683-1.717,3.108,0V106.65l-3.109,0-.684-1.722,2.153-2.186-1.694-1.758L37.981,103.2l-1.686-.76.011-3.016-2.058-.015-.037,3.122a5.659,5.659,0,0,0-1.621.682L30.3,100.985l-1.7,1.753,2.155,2.186-.685,1.732-3.107-.006v2.062l3.169.037.62,1.682-2.148,2.256,1.7,1.687,2.28-2.229a5.865,5.865,0,0,0,1.626.679l.036,3.106a4.965,4.965,0,0,0,2.08-.026" transform="translate(-20.1 -78.291)" fill="#19538d"/>
        <path id="Trazado_1274381" data-name="Trazado 1274381" d="M22.546,202.584a.894.894,0,0,1,.114-1.285.942.942,0,0,1,1.3-.049,12.805,12.805,0,0,0,14.684,2.54,2.909,2.909,0,0,1,1.361-3.394,2.951,2.951,0,1,1-.193,5.037,14.808,14.808,0,0,1-17.266-2.848m18.51-.5a.968.968,0,1,0,.787,1.769.975.975,0,0,0,.49-1.286.955.955,0,0,0-1.278-.483" transform="translate(-17.943 -160.845)" fill="#19538d"/>
        <path id="Trazado_1274382" data-name="Trazado 1274382" d="M40.514,65.167a12.858,12.858,0,0,0-14.789-2.632,2.911,2.911,0,0,1-1.359,3.4,2.949,2.949,0,1,1,.2-5.027A14.833,14.833,0,0,1,41.793,63.7a1,1,0,0,1-.041,1.309c-.234.237-.878.524-1.237.162M22.6,62.453a.969.969,0,1,0,.723,1.8.977.977,0,0,0,.489-1.285.947.947,0,0,0-1.212-.512" transform="translate(-16.07 -47.688)" fill="#19538d"/>
        <path id="Trazado_1274383" data-name="Trazado 1274383" d="M50.832,266.981l-7.239.011a.988.988,0,0,1-1.065-.893.97.97,0,0,1,1.062-1.075l7.247.008a.944.944,0,0,1,.969.889.968.968,0,0,1-.972,1.06" transform="translate(-34.193 -213.107)" fill="#19538d"/>
        <path id="Trazado_1274384" data-name="Trazado 1274384" d="M100.618,265.149a.938.938,0,0,1,1.279.481.971.971,0,1,1-1.279-.481" transform="translate(-80.447 -213.133)" fill="#19538d"/>
        <path id="Trazado_1274385" data-name="Trazado 1274385" d="M247.011,29.49l-5.808.019a1.007,1.007,0,0,1-1-.865.933.933,0,0,1,.84-1.116l5.893-.015a.957.957,0,0,1,1,.833.978.978,0,0,1-.926,1.145" transform="translate(-193.138 -22.123)" fill="#19538d"/>
        <path id="Trazado_1274386" data-name="Trazado 1274386" d="M255.117,46.967l-3.64.013a1.025,1.025,0,0,1-1.087-.925A1,1,0,0,1,251.474,45h3.544a1.006,1.006,0,0,1,1.085.914.978.978,0,0,1-.988,1.05" transform="translate(-201.338 -36.187)" fill="#19538d"/>
        <path id="Trazado_1274387" data-name="Trazado 1274387" d="M252.568,131.353a1.706,1.706,0,0,1,2.048,1.266,1.711,1.711,0,0,1-3.292.925,1.689,1.689,0,0,1,1.245-2.191" transform="translate(-202.018 -105.582)" fill="#19538d"/>
        <path id="Trazado_1274388" data-name="Trazado 1274388" d="M64.754,135.152a2.915,2.915,0,0,1,3.555,2.18,2.932,2.932,0,0,1-5.674,1.472,2.9,2.9,0,0,1,2.119-3.652m.22,1.989a.968.968,0,0,0-.323,1.422,1.022,1.022,0,0,0,1.248.283.957.957,0,0,0,.422-1.3,1.006,1.006,0,0,0-1.346-.4" transform="translate(-50.269 -108.604)" fill="#19538d"/>
      </g>
    </g>
  </g>
</svg>
