<svg xmlns="http://www.w3.org/2000/svg" xmlns:xlink="http://www.w3.org/1999/xlink" width="130" height="130" viewBox="0 0 130 130">
  <defs>
    <clipPath id="clip-path">
      <rect id="Rectángulo_455533" data-name="Rectángulo 455533" width="130" height="124.675" fill="#19538d"/>
    </clipPath>
    <clipPath id="clip-path-2">
      <rect id="Rectángulo_464485" data-name="Rectángulo 464485" width="63.311" height="63.414" fill="#19538d"/>
    </clipPath>
  </defs>
  <g id="Grupo_1183474" data-name="Grupo 1183474" transform="translate(0.295 -0.228)">
    <ellipse id="Elipse_13674" data-name="Elipse 13674" cx="55.433" cy="55.433" rx="55.433" ry="55.433" transform="translate(9.272 9.794)" fill="#fff"/>
    <g id="Grupo_1179062" data-name="Grupo 1179062" transform="translate(-0.295 0.228)">
      <rect id="Rectángulo_455531" data-name="Rectángulo 455531" width="130" height="130" transform="translate(0 0)" fill="none"/>
      <g id="Grupo_1179061" data-name="Grupo 1179061" transform="translate(0 3.059)">
        <path id="Trazado_998445" data-name="Trazado 998445" d="M121.348,97.577H96.727l3.337-6.223h24.621Z" transform="translate(1.399 1.395)" fill="#62249e"/>
        <path id="Trazado_998446" data-name="Trazado 998446" d="M2.024,86.893,0,91.012H27.145l2.024-4.119Z" transform="translate(0 1.333)" fill="#19538d"/>
        <path id="Trazado_998447" data-name="Trazado 998447" d="M124.8,32.583h-26l2.038-4.616h26Z" transform="translate(1.439 0.429)" fill="#19538d"/>
        <path id="Trazado_998448" data-name="Trazado 998448" d="M37.632,12.837H3.483L5.521,8.221H39.671Z" transform="translate(0.067 0.158)" fill="#19538d"/>
        <g id="Grupo_1179060" data-name="Grupo 1179060" transform="translate(0)">
          <g id="Grupo_1179059" data-name="Grupo 1179059" clip-path="url(#clip-path)">
            <path id="Trazado_998449" data-name="Trazado 998449" d="M64.959,116.745A55.15,55.15,0,0,1,11.184,49.237H3.839a62.343,62.343,0,0,0,109.679,51.42H103.9a55,55,0,0,1-38.942,16.088" transform="translate(0.041 0.762)" fill="#19538d"/>
            <path id="Trazado_998450" data-name="Trazado 998450" d="M110.835,88.975h8.158c.655-1.3,1.25-2.641,1.815-3.995h-7.844c-.659,1.363-1.365,2.7-2.13,3.995" transform="translate(1.732 1.314)" fill="#19538d"/>
            <path id="Trazado_998451" data-name="Trazado 998451" d="M127.263,62.338A62.358,62.358,0,0,0,5.373,43.8h7.568A55.178,55.178,0,1,1,116.109,82.912h7.644a62.054,62.054,0,0,0,3.51-20.574" transform="translate(0.084)" fill="#19538d"/>
            <path id="Trazado_998452" data-name="Trazado 998452" d="M108.562,81.649v3.383H113q.8-1.662,1.5-3.383Z" transform="translate(1.696 1.263)" fill="#19538d"/>
            <path id="Trazado_998453" data-name="Trazado 998453" d="M128.115,81.649h-6.163q-.6,1.715-1.3,3.383h7.46Z" transform="translate(1.885 1.263)" fill="#19538d"/>
          </g>
        </g>
        <path id="Trazado_998444" data-name="Trazado 998444" d="M3.057,37.025,0,43.248H18.482l3.058-6.223Z" transform="translate(0 0.565)" fill="#62249e"/>
      </g>
    </g>
    <g id="Grupo_1211830" data-name="Grupo 1211830" transform="translate(33.049 33.52)">
      <g id="Grupo_1211829" data-name="Grupo 1211829" clip-path="url(#clip-path-2)">
        <path id="Trazado_1274568" data-name="Trazado 1274568" d="M56.551,57.455a2.328,2.328,0,0,1-2.3,2.4l-3.855.049L50.37,61.05A2.306,2.306,0,0,1,48.1,63.414H37.212A2.138,2.138,0,0,1,35,61.449l-.042-1.582-3.9-.013A2.284,2.284,0,0,1,28.8,57.479l0-6.325-5.046-.1c-1.491-.031-2.036-1.874-1.7-3.419l-10.019-.05a.948.948,0,0,1-.992-.921.9.9,0,0,1,.979-.922l9.909,0,.074-1.488a2.287,2.287,0,0,1,2.5-2.075l4.283-.034.013-7.66a.974.974,0,0,1,.547-.923l12.386-5.6.007-7.127-4.546-.022a2.26,2.26,0,0,1-2.249-2.37l-.007-4.178A2.3,2.3,0,0,1,37.2,11.843l4.526-.015-.016-2.055-39.867,0,.011,33.992A1.988,1.988,0,0,0,3.9,45.742l3.592-.009a1.022,1.022,0,0,1,1.074.817.951.951,0,0,1-.885,1.024l-3.786.009A3.807,3.807,0,0,1,0,43.746L.005,3.811A3.758,3.758,0,0,1,3.724.029L33.192.01A.9.9,0,0,1,34.039.9a.909.909,0,0,1-1.016.942l-29.072,0a2.058,2.058,0,0,0-2.107,2.1l.031,3.993,39.862,0-.01-4.159a1.951,1.951,0,0,0-1.985-1.923L37.4,1.82A.883.883,0,0,1,36.552.9.933.933,0,0,1,37.6,0l2,0a3.857,3.857,0,0,1,3.975,3.755l.036,8.056,4.313.007a2.266,2.266,0,0,1,2.415,2.035l.034,4.584a2.287,2.287,0,0,1-2.262,2.371l-4.5.017,0,7.168,3.432,1.6c.448.209.317.967.087,1.231a1.044,1.044,0,0,1-1.3.195l-3.163-1.438L32.013,34.394l10.639,4.819L53.3,34.4l-3.354-1.548a.96.96,0,0,1-.425-1.194.889.889,0,0,1,1.129-.483l5.317,2.373a1.152,1.152,0,0,1,.561,1.05l.019,7.539,4.639.068a2.154,2.154,0,0,1,2.123,2.207l0,4.52A2.219,2.219,0,0,1,61,51.141l-4.43.007Zm-8.064-38.5L48.461,13.7l-11.6.01,0,5.26ZM37.466,45.76l2.509-.035a1.856,1.856,0,0,0,1.773-1.918l-.021-2.956L30.663,35.839l-.011,6.349,4.78,0a2.268,2.268,0,0,1,1.99,1.991Zm.027,8.65,10.416.013A2.322,2.322,0,0,1,50.283,56.1l.092,1.881a21.276,21.276,0,0,0,4.273-.077l.018-6.747-4.59-.026a2.164,2.164,0,0,1-2.155-2.173V44.393a2.233,2.233,0,0,1,2.352-2.217l4.39-.024-.01-6.3L43.606,40.842l-.045,3.347a3.5,3.5,0,0,1-3.576,3.382l-2.55.021-.012,1.169a2.238,2.238,0,0,1-2.2,2.363l-4.578.019.064,6.808a27.534,27.534,0,0,0,4.209.025l.043-1.3a2.35,2.35,0,0,1,2.529-2.266m-1.945-5.128-.007-5.229-11.595,0,0,5.272Zm25.9-.037-.016-5.176-11.654-.013-.064,4.5a.715.715,0,0,0,.776.8ZM48.486,61.557,48.462,56.3l-11.61,0,.02,5.259Z" transform="translate(0 0)" fill="#19538d"/>
        <path id="Trazado_1274569" data-name="Trazado 1274569" d="M89.555,120.8l-16.494.015a.916.916,0,0,1-.927-.776c-.049-.33.2-1.038.744-1.038l16.6-.02a.911.911,0,0,1,.079,1.82" transform="translate(-57.834 -95.4)" fill="#19538d"/>
        <path id="Trazado_1274570" data-name="Trazado 1274570" d="M88.5,21.866l-15.538.011a.887.887,0,0,1-.936-.8c-.053-.331.213-1.013.777-1.015l15.591-.028a.9.9,0,0,1,.935.743.874.874,0,0,1-.83,1.086" transform="translate(-57.746 -16.065)" fill="#19538d"/>
        <path id="Trazado_1274571" data-name="Trazado 1274571" d="M83.807,166.321l-10.756.012a.984.984,0,0,1-.924-.91.927.927,0,0,1,.994-.975l10.734,0a.938.938,0,0,1,.887.815.9.9,0,0,1-.935,1.056" transform="translate(-57.83 -131.858)" fill="#19538d"/>
        <path id="Trazado_1274572" data-name="Trazado 1274572" d="M65.5,98.3l-9.773,0a.963.963,0,0,1-1-.889.949.949,0,0,1,.874-.984l9.945,0a.96.96,0,0,1,.893.82A.9.9,0,0,1,65.5,98.3" transform="translate(-43.876 -77.315)" fill="#19538d"/>
        <path id="Trazado_1274573" data-name="Trazado 1274573" d="M104.645,143.854l-8.821,0a.877.877,0,0,1-.962-.929.918.918,0,0,1,.979-.891l8.706-.012a.916.916,0,0,1,1.02.71.9.9,0,0,1-.922,1.118" transform="translate(-76.062 -113.88)" fill="#19538d"/>
        <path id="Trazado_1274574" data-name="Trazado 1274574" d="M102.951,76.033l-7.727.006a.918.918,0,0,1-.918-1.021.989.989,0,0,1,1.089-.865l7.5,0a.973.973,0,0,1,.983.876.918.918,0,0,1-.927,1" transform="translate(-75.614 -59.457)" fill="#19538d"/>
        <path id="Trazado_1274575" data-name="Trazado 1274575" d="M84.2,188.829l-4.57,0a.907.907,0,0,1-1.008-.923.891.891,0,0,1,1.01-.9l4.555.006a.923.923,0,0,1,1,.9.892.892,0,0,1-.986.915" transform="translate(-63.038 -149.95)" fill="#19538d"/>
        <path id="Trazado_1274576" data-name="Trazado 1274576" d="M59.966,75.8,55.7,75.81a.916.916,0,0,1-.994-.942.9.9,0,0,1,.994-.9l4.169,0a.929.929,0,0,1,1.017.719.9.9,0,0,1-.922,1.118" transform="translate(-43.866 -59.306)" fill="#19538d"/>
        <path id="Trazado_1274577" data-name="Trazado 1274577" d="M59.982,143.847l-4.272,0a.9.9,0,0,1-.989-.926.924.924,0,0,1,1-.893l4.155-.01a.919.919,0,0,1,1.019.709.9.9,0,0,1-.917,1.117" transform="translate(-43.876 -113.876)" fill="#19538d"/>
        <path id="Trazado_1274578" data-name="Trazado 1274578" d="M125.781,98.108l-2.392-.017a.854.854,0,0,1-.868-.844c-.062-1.147,1.4-1.109,3.135-.98a.906.906,0,0,1,.843.8,1,1,0,0,1-.718,1.039" transform="translate(-98.239 -77.139)" fill="#19538d"/>
        <path id="Trazado_1274579" data-name="Trazado 1274579" d="M171.681,21.87l-1.995.008a.923.923,0,1,1,.015-1.839l1.965,0a.93.93,0,0,1,.988.9.892.892,0,0,1-.973.931" transform="translate(-135.262 -16.068)" fill="#19538d"/>
        <path id="Trazado_1274580" data-name="Trazado 1274580" d="M58.3,187.64c.006,1.061-1.211,1.075-2.942.866a.756.756,0,0,1-.618-.694c-.049-.315.038-.869.472-.959,1.536-.32,3.082-.257,3.087.787" transform="translate(-43.885 -149.687)" fill="#19538d"/>
        <path id="Trazado_1274581" data-name="Trazado 1274581" d="M27.925,165.93l-1.549,0a.864.864,0,0,1-.923-1,.927.927,0,0,1,1.044-.884l1.377,0a.921.921,0,0,1,.992.891.9.9,0,0,1-.941.983" transform="translate(-20.406 -131.541)" fill="#19538d"/>
        <path id="Trazado_1274582" data-name="Trazado 1274582" d="M28.1,75.78c-1.408.226-2.558.11-2.628-.791a.826.826,0,0,1,.571-.95c1.35-.326,2.75-.182,2.837.773a.88.88,0,0,1-.779.969" transform="translate(-20.419 -59.24)" fill="#19538d"/>
        <path id="Trazado_1274583" data-name="Trazado 1274583" d="M28.869,120.074c.075,1.1-1.622,1.285-2.944.863a.847.847,0,0,1-.439-1.054.836.836,0,0,1,.851-.675l1.716,0a.844.844,0,0,1,.815.862" transform="translate(-20.411 -95.583)" fill="#19538d"/>
        <path id="Trazado_1274584" data-name="Trazado 1274584" d="M28.5,98.438c-.869.351-2.792.387-2.986-.561-.071-.345.046-.905.5-.993a5.531,5.531,0,0,1,2.439.019.89.89,0,0,1,.051,1.535" transform="translate(-20.445 -77.582)" fill="#19538d"/>
        <path id="Trazado_1274585" data-name="Trazado 1274585" d="M28.5,143.411c-.871.348-2.781.4-2.982-.558-.073-.348.041-.9.493-1a5.429,5.429,0,0,1,2.444.023.888.888,0,0,1,.045,1.532" transform="translate(-20.447 -113.641)" fill="#19538d"/>
        <path id="Trazado_1274586" data-name="Trazado 1274586" d="M28.465,188.219c-1.111.407-2.952.361-2.991-.727-.038-1.062,1.655-1.162,2.96-.8a.871.871,0,0,1,.03,1.525" transform="translate(-20.426 -149.543)" fill="#19538d"/>
        <path id="Trazado_1274587" data-name="Trazado 1274587" d="M123.269,188.489a3.45,3.45,0,0,1-2.069.031.786.786,0,0,1-.487-.814.769.769,0,0,1,.489-.79c1.118-.291,2.331-.206,2.487.618a.814.814,0,0,1-.42.955" transform="translate(-96.791 -149.752)" fill="#19538d"/>
        <path id="Trazado_1274588" data-name="Trazado 1274588" d="M151.813,75.577c-.919.494-2.647.271-2.648-.756,0-.861.982-1.012,2.269-.857a.841.841,0,0,1,.685.607.824.824,0,0,1-.307,1.006" transform="translate(-119.604 -59.263)" fill="#19538d"/>
        <path id="Trazado_1274589" data-name="Trazado 1274589" d="M153.341,96.45a.861.861,0,0,1,.222,1.163,1.6,1.6,0,0,1-2.367,0,.851.851,0,0,1,.169-1.128,1.811,1.811,0,0,1,1.976-.037" transform="translate(-121.121 -77.116)" fill="#19538d"/>
        <path id="Trazado_1274590" data-name="Trazado 1274590" d="M55.169,119.079a.925.925,0,0,1,1.2.3.967.967,0,0,1-.293,1.288.943.943,0,0,1-1.276-.3.917.917,0,0,1,.368-1.287" transform="translate(-43.841 -95.401)" fill="#19538d"/>
        <path id="Trazado_1274591" data-name="Trazado 1274591" d="M155.7,142.213a.908.908,0,0,1,.821,1.62.931.931,0,0,1-1.266-.4.921.921,0,0,1,.444-1.216" transform="translate(-124.425 -113.952)" fill="#19538d"/>
        <path id="Trazado_1274592" data-name="Trazado 1274592" d="M37.672,20.166a.9.9,0,0,1,1.17.561.92.92,0,0,1-1.7.7.922.922,0,0,1,.526-1.265" transform="translate(-29.713 -16.12)" fill="#19538d"/>
        <path id="Trazado_1274593" data-name="Trazado 1274593" d="M22,20.168a.952.952,0,0,1,1.174.352.913.913,0,0,1-.266,1.244.943.943,0,0,1-1.3-.3.914.914,0,0,1,.39-1.3" transform="translate(-17.228 -16.11)" fill="#19538d"/>
        <path id="Trazado_1274594" data-name="Trazado 1274594" d="M53.291,20.163a.9.9,0,1,1-.469,1.293.906.906,0,0,1,.469-1.293" transform="translate(-42.263 -16.111)" fill="#19538d"/>
        <path id="Trazado_1274595" data-name="Trazado 1274595" d="M55.164,164.681a.883.883,0,0,1,1.233.332.926.926,0,0,1-.338,1.268.917.917,0,1,1-.9-1.6" transform="translate(-43.853 -131.946)" fill="#19538d"/>
        <path id="Trazado_1274596" data-name="Trazado 1274596" d="M279.69,232.548l-3.454.022a.913.913,0,0,1,0-1.823l3.178-.028a1.027,1.027,0,0,1,1.086.808.909.909,0,0,1-.807,1.021" transform="translate(-220.796 -184.996)" fill="#19538d"/>
        <path id="Trazado_1274597" data-name="Trazado 1274597" d="M260.335,231.038a.907.907,0,0,1,1.274.242.919.919,0,0,1-.307,1.3.912.912,0,0,1-.968-1.543" transform="translate(-208.432 -185.122)" fill="#19538d"/>
        <path id="Trazado_1274598" data-name="Trazado 1274598" d="M214.109,294.571l-3.169-.007a.926.926,0,0,1-.927-.75.846.846,0,0,1,.719-1.062l3.382-.031a.929.929,0,1,1-.006,1.85" transform="translate(-168.38 -234.711)" fill="#19538d"/>
        <path id="Trazado_1274599" data-name="Trazado 1274599" d="M195.048,292.878a.893.893,0,0,1,1.276.292A.908.908,0,0,1,196,294.43a.974.974,0,0,1-1.148-.17.923.923,0,0,1,.193-1.382" transform="translate(-156.058 -234.714)" fill="#19538d"/>
        <path id="Trazado_1274600" data-name="Trazado 1274600" d="M214.206,79.6l-3.263,0a.932.932,0,0,1-.93-.769c-.066-.316.071-1,.559-1.009l3.544-.081a.929.929,0,0,1,1,.758.9.9,0,0,1-.907,1.1" transform="translate(-168.381 -62.333)" fill="#19538d"/>
        <path id="Trazado_1274601" data-name="Trazado 1274601" d="M195.065,77.915a.9.9,0,0,1,1.276.291.957.957,0,0,1-.3,1.275.922.922,0,0,1-.974-1.566" transform="translate(-156.071 -62.355)" fill="#19538d"/>
        <path id="Trazado_1274602" data-name="Trazado 1274602" d="M148.868,232.632l-3.184-.007a.9.9,0,0,1-1-.92.914.914,0,0,1,1-.935l3.183.009a.878.878,0,0,1,.971.916.922.922,0,0,1-.968.937" transform="translate(-116.013 -185.037)" fill="#19538d"/>
        <path id="Trazado_1274603" data-name="Trazado 1274603" d="M129.8,230.931a.868.868,0,0,1,1.227.5.9.9,0,0,1-.487,1.134.921.921,0,0,1-1.209-.411.876.876,0,0,1,.469-1.227" transform="translate(-103.615 -185.093)" fill="#19538d"/>
      </g>
    </g>
  </g>
</svg>
